# xmcd
#
# Track frame offsets:
#	150
#	10809
#	22311
#	31376
#	40029
#	48559
#	56644
#	67570
#	76470
#	86738
#	95054
#	105617
#	115064
#	123359
#	131448
#	141212
#	151217
#	160666
#	171980
#	180827
#	188540
#	200111
#	209887
#	222184
#	230696
#	242498
#	255164
#	266975
#	275524
#	284240
#	294508
#	304280
#	314416
#	324768
#	334495
#
# Disc length: 4571 seconds
#
# Revision: 0
# Processed by: cddbd v1.5.2PL0 Copyright (c) Steve Scherf et al.
# Submitted via: EasyCDDAExtractor 12.0.1.1
#
DISCID=0811d923
DTITLE=Johnny Cash - Complete Recording Sessions [Cd 06] 1959 Sessions
DYEAR=2005
DGENRE=Country
TTITLE0=Snow In His Hair
TTITLE1=I Saw A Man
TTITLE2=Lead Me Gently Home
TTITLE3=Are All The Children In
TTITLE4=Swing Low, Sweet Chariot
TTITLE5=I Call Him
TTITLE6=The Old Account
TTITLE7=He'll Be A Friend
TTITLE8=These Things Shall Pass
TTITLE9=It Could Be You Instead Of Him
TTITLE10=God Will
TTITLE11=I Got Stripes
TTITLE12=You Dreamer You
TTITLE13=Five Feet High And Rising
TTITLE14=The Man On The Hill
TTITLE15=Hank And Joe And Me
TTITLE16=The Caretaker
TTITLE17=Clementine
TTITLE18=I Want To Go Home
TTITLE19=Old Apache Squaw
TTITLE20=Don't Step On Mother's Roses
TTITLE21=The Great Speckled Bird
TTITLE22=My Grandfather's Clock
TTITLE23=The Rebel Johnny Yuma
TTITLE24=The Little Drummer Boy
TTITLE25=Remember The Alamo
TTITLE26=Ballad Of Boot Hill
TTITLE27=I'll Remember You
TTITLE28=Lorena
TTITLE29=Heartbeat
TTITLE30=Hello Again
TTITLE31=Bandana
TTITLE32=Wablash Blues
TTITLE33=Viel Zu Spät
TTITLE34=Wo Ist Zu Hause Mama?
EXTD=
EXTT0=
EXTT1=
EXTT2=
EXTT3=
EXTT4=
EXTT5=
EXTT6=
EXTT7=
EXTT8=
EXTT9=
EXTT10=
EXTT11=
EXTT12=
EXTT13=
EXTT14=
EXTT15=
EXTT16=
EXTT17=
EXTT18=
EXTT19=
EXTT20=
EXTT21=
EXTT22=
EXTT23=
EXTT24=
EXTT25=
EXTT26=
EXTT27=
EXTT28=
EXTT29=
EXTT30=
EXTT31=
EXTT32=
EXTT33=
EXTT34=
PLAYORDER=
